<?xml version="1.0" encoding="utf-8"?>
<!-- Generator: Adobe Illustrator 16.0.0, SVG Export Plug-In . SVG Version: 6.00 Build 0)  -->
<!DOCTYPE svg PUBLIC "-//W3C//DTD SVG 1.1//EN" "http://www.w3.org/Graphics/SVG/1.1/DTD/svg11.dtd">
<svg version="1.1" id="Layer_1" xmlns="http://www.w3.org/2000/svg" xmlns:xlink="http://www.w3.org/1999/xlink" x="0px" y="0px"
	 width="502.879px" height="55.617px" viewBox="0 0 502.879 55.617" enable-background="new 0 0 502.879 55.617"
	 xml:space="preserve">
<title>Folha de S. Paulo</title>
<g transform="translate(-117.13239,-682.42131)">
	<path fill="#F2CA30" d="M153.57,712.81c0,16.868,5.888,24.665,18.379,24.665c10.9,0,19.334-7.002,19.334-24.108
		c0-16.947-5.967-24.585-18.459-24.585C161.924,688.782,153.569,695.625,153.57,712.81L153.57,712.81z M179.826,713.447
		c0,18.617-3.819,21.244-7.717,21.244c-3.819,0-7.161-3.023-7.161-22.039c0-18.538,3.819-21.085,7.638-21.085
		C176.484,691.566,179.826,694.431,179.826,713.447L179.826,713.447z M193.511,736.599h28.166v-14.242h-2.228l-3.899,11.06h-7.161
		V692.76l4.137-0.955v-2.148h-18.698v2.148l3.819,0.955v40.737l-4.137,0.954V736.599L193.511,736.599z M225.416,689.657v2.148
		l3.819,1.034v40.657l-3.819,0.955v2.148h17.982v-2.148l-3.421-0.955v-18.459h10.343v18.459l-3.183,0.955v2.148h17.743v-2.148
		l-3.819-0.955v-40.736l3.501-0.955v-2.148h-17.425v2.148l3.183,0.955v19.095h-10.343v-19.095l3.421-0.955v-2.148L225.416,689.657
		L225.416,689.657z M267.903,736.599h12.014v-2.148l-4.854-0.954l2.625-11.219h10.025l3.739,11.219l-4.217,0.954v2.148h18.936
		v-2.148l-3.501-0.954l-13.287-43.919h-6.684l-11.378,43.919l-3.421,0.954L267.903,736.599L267.903,736.599z M278.565,719.015
		l3.66-14.799l4.535,14.799H278.565z M352.958,713.843c0-18.458-7.001-24.188-18.618-24.188h-18.141v2.148l3.74,0.955v40.737
		l-3.74,0.955v2.148h18.936C344.444,736.599,352.957,730.472,352.958,713.843L352.958,713.843z M334.181,733.417h-3.023v-40.579
		h2.705c5.331,0,8.274,3.103,8.274,20.528C342.137,730.473,339.591,733.417,334.181,733.417L334.181,733.417z M117.291,683.132
		v2.466l4.854,1.035v46.466l-5.013,1.034v2.466h23.233v-2.466L134,733.099v-21.482h6.843l1.671,7.081h2.546v-17.265h-2.546
		l-1.671,6.524H134v-21.244h8.752l4.456,12.173h2.705v-15.754L117.291,683.132L117.291,683.132z"/>
	<path fill="#F2CA30" d="M375.99,733.419h-8.673v-18.697h5.808l1.434,6.285h2.227v-15.197h-2.227l-1.434,5.728h-5.808v-18.538h7.241
		l3.818,10.343h2.467v-13.526h-28.564v2.069l4.296,0.955v40.657l-4.376,0.955v2.147h30.076v-13.685h-2.387L375.99,733.419
		L375.99,733.419z M415.772,682.419c-9.547,0-17.105,6.126-17.186,15.754c-0.08,15.833,20.13,15.993,20.13,28.643
		c0,3.422-2.626,6.524-6.763,6.524c-2.785,0-5.809-0.397-8.036-1.751l-2.388-10.342h-2.784v14.48
		c2.784,1.113,6.923,1.75,11.616,1.75c10.9,0,18.22-7.956,18.22-17.584c0-17.186-19.812-16.072-19.812-27.768
		c0-3.183,2.467-5.649,7.002-5.649c1.988,0,3.342,0.239,5.33,0.637l2.625,10.662h2.547v-14.481
		C423.012,682.658,419.431,682.419,415.772,682.419L415.772,682.419z M460.885,711.221h-1.988v-24.347h2.147
		c4.058,0,5.569,2.228,5.569,12.094C466.613,708.834,464.545,711.221,460.885,711.221L460.885,711.221z M463.828,714.88
		c10.662,0,15.277-6.285,15.277-15.833c0-12.332-5.889-15.833-14.641-15.833h-22.277v2.467l4.854,1.034v46.385l-5.014,1.035v2.467
		h22.916v-2.467l-6.047-1.035v-18.219h4.932V714.88z M486.822,719.098l3.66-14.878l4.535,14.878H486.822L486.822,719.098z
		 M475.684,736.602h12.492v-2.148l-4.773-0.954l2.625-11.22h9.945l3.66,11.22l-4.217,0.954v2.148h19.414v-2.148l-3.979-0.954
		l-13.207-43.841h-6.684L479.504,733.5l-3.819,0.954L475.684,736.602L475.684,736.602z M512.84,689.818v2.069l3.818,0.955v30.234
		c0,10.82,3.502,14.958,13.925,14.958c9.388,0.079,13.845-3.819,13.845-12.89v-32.303l3.58-0.955v-2.069h-10.821v2.069l3.978,0.955
		v31.667c0,6.604-1.83,10.185-7.956,10.185c-4.376,0-5.808-2.785-5.808-8.752v-33.1l4.137-0.955v-2.069H512.84L512.84,689.818z
		 M551.508,736.602h27.688V722.36h-2.227l-3.82,11.06h-6.842v-40.579l4.137-0.955v-2.069h-18.697v2.069l3.898,0.955v40.657
		l-4.137,0.955V736.602L551.508,736.602z M582.457,712.812c0,16.868,5.889,24.665,18.379,24.665
		c10.822,0,19.176-7.002,19.176-24.108c0-16.868-5.967-24.506-18.459-24.506C590.732,688.863,582.457,695.706,582.457,712.812
		L582.457,712.812z M608.635,713.528c0,18.538-3.898,21.164-7.717,21.164c-3.82,0-7.082-3.023-7.082-21.96
		c0-18.538,3.818-21.085,7.639-21.085C605.293,691.647,608.635,694.511,608.635,713.528L608.635,713.528z M432.404,727.85
		c2.547,0,4.615,2.308,4.615,5.092c0,2.785-2.229,5.093-4.773,5.093c-2.387,0-4.615-2.308-4.615-5.093
		C427.631,730.158,430.018,727.85,432.404,727.85L432.404,727.85z"/>
</g>
</svg>
