<?xml version="1.0" encoding="utf-8"?>
<!-- Generator: Adobe Illustrator 16.0.0, SVG Export Plug-In . SVG Version: 6.00 Build 0)  -->
<!DOCTYPE svg PUBLIC "-//W3C//DTD SVG 1.1//EN" "http://www.w3.org/Graphics/SVG/1.1/DTD/svg11.dtd">
<svg version="1.1" id="Layer_1" xmlns="http://www.w3.org/2000/svg" xmlns:xlink="http://www.w3.org/1999/xlink" x="0px" y="0px"
	 width="960px" height="854px" viewBox="0 0 960 854" enable-background="new 0 0 960 854" xml:space="preserve">
<g>
	<path fill="#F2CA30" d="M494.413,20.077c-221.136,0-400.398,179.265-400.398,400.399c0,221.129,179.263,400.395,400.398,400.395
		c221.13,0,400.396-179.266,400.396-400.395C894.809,199.341,715.543,20.077,494.413,20.077z M823.297,589.971
		c-2.338,15.92-12.811,27.143-29.563,29.502c-0.025,0-134.625,10.799-296.718,10.971h-1.559c-0.35,0-0.693,0-1.049,0
		c-0.344,0-0.697,0-1.045,0h-1.561c-162.093-0.172-296.692-10.971-296.815-10.977c-16.658-2.354-27.127-13.576-29.473-29.518
		c0-0.045-10.23-73.441-10.23-164.854c0-1.543,0.006-3.086,0.012-4.615c-0.006-1.539-0.012-3.08-0.012-4.633
		c0-91.409,10.23-164.803,10.238-164.868c2.338-15.929,12.807-27.146,29.563-29.511c0.025,0,134.625-10.791,296.718-10.963v-0.001
		h1.561c0.354,0,0.701,0,1.045,0c0.35,0,0.699,0,1.049,0h1.559v0.001c162.093,0.172,296.692,10.963,296.815,10.977
		c16.654,2.351,27.127,13.568,29.471,29.517c0,0.045,10.23,73.439,10.236,164.848h-0.006c0,1.553-0.006,3.094-0.012,4.617
		c0.006,1.545,0.012,3.088,0.018,4.631C833.533,516.508,823.303,589.904,823.297,589.971z"/>
	<g>
		<circle fill="#F2CA30" cx="494.412" cy="420.475" r="170.128"/>
	</g>
</g>
</svg>
