<?xml version="1.0" encoding="utf-8"?>
<!-- Generator: Adobe Illustrator 16.0.0, SVG Export Plug-In . SVG Version: 6.00 Build 0)  -->
<!DOCTYPE svg PUBLIC "-//W3C//DTD SVG 1.1//EN" "http://www.w3.org/Graphics/SVG/1.1/DTD/svg11.dtd">
<svg version="1.1" id="Layer_1" xmlns="http://www.w3.org/2000/svg" xmlns:xlink="http://www.w3.org/1999/xlink" x="0px" y="0px"
	 width="300px" height="300px" viewBox="1100 1100 300 300" enable-background="new 1100 1100 300 300" xml:space="preserve">
<g>
	<path fill="#C6C6C6" d="M1365.415,1178.831c-6.306-13.333-13.977-23.657-22.473-27.94c-4.92-2.627-11.344-4.78-18.865-6.478
		c4.962,11.437,8.991,23.255,12.047,35.341C1345.974,1179.219,1355.801,1178.914,1365.415,1178.831z"/>
	<path fill="#8E8E8E" d="M1305.764,1319.81c-16.515,9.854-45.315,21.482-77.87,31.527c-10.038,3.097-20.147,5.958-30.319,8.582
		c10.827,0.777,22.664,0.193,34.956-1.481c38.742-5.254,81.889-21.259,111.495-39.073
		C1331.281,1319.987,1318.519,1320.136,1305.764,1319.81L1305.764,1319.81z"/>
	<path fill="#B5B5B5" d="M1375.131,1293.707c14.448-19.973,7.445-78.577-9.716-114.876c-9.617,0.08-19.441,0.389-29.287,0.924
		c9.219,36.437,10.467,79.375-12.433,108.737c-0.465,9.229-1.917,16.515-4.458,20.422c-2.07,3.188-6.768,6.9-13.471,10.9
		c12.496,0.313,25.533,0.194,38.259-0.442C1358.091,1310.903,1369.105,1302.028,1375.131,1293.707z"/>
	<path fill="#CCCCCC" d="M1207.749,1308.709c-23.902,1.058-49.254,1.079-73.752-0.395c7.707,19.008,17.703,34.608,29.288,42.009
		c9.181,5.625,20.973,8.641,34.291,9.599c10.292-2.656,20.476-5.541,30.319-8.582
		C1220.051,1338.62,1213.179,1323.86,1207.749,1308.709z"/>
	<path fill="#A6A6A6" d="M1231.55,1307.296c-7.707,0.579-15.667,1.057-23.804,1.413c5.429,15.149,12.301,29.909,20.145,42.628
		c32.555-10.045,61.358-21.678,77.87-31.527c-35.08-0.875-65.855-5.189-73.02-11.416
		C1232.339,1308.047,1231.948,1307.668,1231.55,1307.296L1231.55,1307.296z"/>
	<path fill="#8E8E8E" d="M1319.233,1308.909c2.545-3.906,3.994-11.189,4.459-20.422c-0.176,0.221-0.331,0.453-0.51,0.669
		c-5.566,6.978-43.525,14.524-91.633,18.136c0.398,0.373,0.79,0.752,1.194,1.099c7.165,6.226,37.939,10.54,73.02,11.417
		C1312.47,1315.811,1317.164,1312.101,1319.233,1308.909z"/>
	<path fill="#919191" d="M1324.081,1144.413c-33.15-7.458-87.847-5.914-132.124,4.111c-15.661,3.541-30.017,8.146-41.653,13.779
		c13.671-1.007,27.785-1.43,41.672-1.293c39.649,0.398,77.472,5.366,97.854,14.396c3.186,1.414,6.182,4.006,8.994,7.497
		c12.164-1.408,24.743-2.458,37.306-3.146C1333.072,1167.67,1329.043,1155.851,1324.081,1144.413L1324.081,1144.413z"/>
	<path fill="#A6A6A6" d="M1197.982,1220.388c-3.595-20.801-5.586-41.822-6.009-59.377c-13.887-0.137-28.001,0.283-41.672,1.293
		c-10.827,5.245-19.308,11.391-24.291,18.409c-15.349,21.648-9.795,83.729,7.983,127.604c24.498,1.475,49.85,1.452,73.752,0.395
		C1195.705,1275.122,1190.75,1239.657,1197.982,1220.388z"/>
	<path fill="#848484" d="M1298.821,1182.9c-2.812-3.49-5.809-6.082-8.992-7.496c-20.381-9.028-58.203-13.999-97.856-14.397
		c0.423,17.556,2.414,38.577,6.009,59.377c1.213-3.232,2.761-6.012,4.684-8.245C1214.869,1198.04,1254.061,1188.072,1298.821,1182.9
		L1298.821,1182.9z"/>
	<path fill="#A6A6A6" d="M1197.982,1220.388c-7.232,19.269-2.277,54.734,9.764,88.324c8.136-0.355,16.097-0.834,23.804-1.414
		C1215.354,1292.007,1204.24,1256.554,1197.982,1220.388L1197.982,1220.388z"/>
	<path fill="#A6A6A6" d="M1340.01,1198.947c-1.022-6.446-2.335-12.843-3.937-19.171c-12.466,0.672-24.909,1.721-37.313,3.143
		c5.107,6.347,9.547,15.719,13.222,26.546c7.321-4.318,14.102-7.601,19.846-9.538
		C1334.22,1199.119,1336.962,1198.816,1340.01,1198.947z"/>
	<path fill="#A6A6A6" d="M1323.638,1288.513c18.982-24.335,21.365-58.001,16.372-89.565c-3.048-0.131-5.79,0.175-8.178,0.984
		c-5.748,1.936-12.528,5.219-19.846,9.537C1320.387,1234.275,1324.74,1266.786,1323.638,1288.513L1323.638,1288.513z"/>
</g>
</svg>
