<?xml version="1.0" encoding="utf-8"?>
<!-- Generator: Adobe Illustrator 16.0.0, SVG Export Plug-In . SVG Version: 6.00 Build 0)  -->
<!DOCTYPE svg PUBLIC "-//W3C//DTD SVG 1.1//EN" "http://www.w3.org/Graphics/SVG/1.1/DTD/svg11.dtd">
<svg version="1.1"
	 id="svg12" sodipodi:docname="uol-logo.svg" inkscape:export-xdpi="561.73712" inkscape:export-ydpi="561.73712" inkscape:version="0.92.3 (2405546, 2018-03-11)" inkscape:export-filename="C:\Users\alex\sites\uol-logo-0.png" xmlns:inkscape="http://www.inkscape.org/namespaces/inkscape" xmlns:sodipodi="http://sodipodi.sourceforge.net/DTD/sodipodi-0.dtd" xmlns:svg="http://www.w3.org/2000/svg" xmlns:rdf="http://www.w3.org/1999/02/22-rdf-syntax-ns#" xmlns:cc="http://creativecommons.org/ns#" xmlns:dc="http://purl.org/dc/elements/1.1/"
	 xmlns="http://www.w3.org/2000/svg" xmlns:xlink="http://www.w3.org/1999/xlink" x="0px" y="0px" width="200px" height="200px"
	 viewBox="79 248 200 200" enable-background="new 79 248 200 200" xml:space="preserve">
<sodipodi:namedview  id="namedview14" showgrid="false" inkscape:zoom="0.53967568" inkscape:cy="205.69012" objecttolerance="10" gridtolerance="10" inkscape:cx="140.90714" borderopacity="1" guidetolerance="10" pagecolor="#ffffff" bordercolor="#666666" inkscape:current-layer="svg12" inkscape:window-maximized="1" inkscape:pageshadow="2" inkscape:window-y="-8" inkscape:window-x="-8" inkscape:window-height="838" inkscape:pageopacity="0" inkscape:window-width="1600">
	</sodipodi:namedview>
<circle id="circle4" inkscape:export-xdpi="71.342796" inkscape:export-ydpi="71.342796" inkscape:export-filename="C:\Users\alex\sites\uol-logo-4.png" fill="#FF8000" cx="177.064" cy="349.999" r="96.187">
</circle>
<path id="path6" inkscape:export-xdpi="71.342796" inkscape:export-ydpi="71.342796" inkscape:export-filename="C:\Users\alex\sites\uol-logo-4.png" inkscape:connector-curvature="0" fill="#FFCE00" d="
	M177.064,259.022c-44.333,0.221-80.157,36.223-80.156,80.557c0,4.408,0.4,8.416,0.801,12.824
	c10.42-27.253,38.875-46.891,72.541-46.891c26.133-0.411,50.705,12.403,65.327,34.066h0.401c7.702-0.128,15.209,2.422,21.241,7.214
	c0.333-2.39,0.466-4.803,0.4-7.214C257.62,295.088,221.554,259.022,177.064,259.022L177.064,259.022"/>
<path id="path8" inkscape:export-xdpi="71.342796" inkscape:export-ydpi="71.342796" inkscape:export-filename="C:\Users\alex\sites\uol-logo-4.png" inkscape:connector-curvature="0" fill="#FF0024" d="
	M257.22,346.793c-6.032-4.792-13.539-7.342-21.241-7.214h-0.401c-23.646,0-48.495,20.439-55.708,46.089
	c-3.782,11.485-2.004,24.077,4.81,34.066h-7.615c-39.284-0.218-72.743-28.606-79.354-67.331c-2.559,7.35-3.913,15.063-4.008,22.845
	c0.124,19.278,8.604,37.555,23.245,50.098c9.206,6.977,19.497,12.393,30.459,16.031c9.547,3.25,19.572,4.876,29.658,4.809
	c27.664-0.022,53.967-12.005,72.14-32.863c6.252-6.911,11.39-14.754,15.229-23.245c0.401-1.604,1.202-2.806,1.603-4.409
	C270.445,369.236,266.838,355.209,257.22,346.793"/>
</svg>
