<?xml version="1.0" encoding="utf-8"?>
<!-- Generator: Adobe Illustrator 16.0.0, SVG Export Plug-In . SVG Version: 6.00 Build 0)  -->
<!DOCTYPE svg PUBLIC "-//W3C//DTD SVG 1.1//EN" "http://www.w3.org/Graphics/SVG/1.1/DTD/svg11.dtd">
<svg version="1.1"
	 id="svg10" sodipodi:docname="valor-economico-logo.svg" inkscape:version="0.92.2 (5c3e80d, 2017-08-06)" xmlns:inkscape="http://www.inkscape.org/namespaces/inkscape" xmlns:sodipodi="http://sodipodi.sourceforge.net/DTD/sodipodi-0.dtd" xmlns:svg="http://www.w3.org/2000/svg" xmlns:rdf="http://www.w3.org/1999/02/22-rdf-syntax-ns#" xmlns:cc="http://creativecommons.org/ns#" xmlns:dc="http://purl.org/dc/elements/1.1/"
	 xmlns="http://www.w3.org/2000/svg" xmlns:xlink="http://www.w3.org/1999/xlink" x="0px" y="0px" width="512.1px"
	 height="183.813px" viewBox="0 0 512.1 183.813" enable-background="new 0 0 512.1 183.813" xml:space="preserve">
<sodipodi:namedview  fit-margin-top="0" fit-margin-left="0" fit-margin-right="0" fit-margin-bottom="0" id="namedview12" showgrid="false" inkscape:zoom="0.61914062" inkscape:cy="212.89524" objecttolerance="10" gridtolerance="10" inkscape:cx="256.1" borderopacity="1" guidetolerance="10" pagecolor="#ffffff" bordercolor="#666666" inkscape:current-layer="svg10" inkscape:window-maximized="1" inkscape:pageshadow="2" inkscape:window-y="-8" inkscape:window-x="-8" inkscape:window-height="837" inkscape:pageopacity="0" inkscape:window-width="1600">
	</sodipodi:namedview>
<title  id="title2">Valor Econômico</title>
<g id="g8" transform="translate(0.1)" inkscape:export-xdpi="9.3731699" inkscape:export-ydpi="9.3731699">
	<path id="path4" inkscape:connector-curvature="0" fill="#A6A6A6" d="M373.001,3.25l-3.701,5h1.701l3.399-2.8l3.3,3h1.7l-3.7-5.2
		H373.001z M319.001,9.25c-5,0-8.301,4.3-8.301,11.3v1c0,7,3.301,11,8.4,11c4.6,0,7-2.7,8-7l-3.4-0.8c-0.6,3.3-2,5.2-4.4,5.2
		c-3.299,0-4.799-3.3-4.799-8v-1.7c0-4.8,1.5-8,4.699-8c2.5,0,3.801,1.5,4.4,4.8l3.4-1c-1-4-3-6.7-7.701-6.7L319.001,9.25z
		 M336.6,9.25c-5.2,0-8.4,4.3-8.4,11.3v1c0,7,3.2,11,8.4,11c5.199,0,8.4-4,8.4-11v-1c0-7-3.201-11.2-8.4-11.2V9.25z M374.4,9.25
		c-5.2,0-8.399,4.3-8.399,11.3v1c0,7,3.199,11,8.399,11s8.5-4,8.5-11v-1c0-7-3.399-11.2-8.601-11.2L374.4,9.25z M430,9.25
		c-5.399,0-8.5,4.3-8.5,11.3v1c0,7,3.2,11,8.301,11c4.399,0,7-2.7,7.8-7l-3.3-0.8c-0.7,3.3-2,5.2-4.4,5.2c-3.4,0-4.8-3.3-4.8-8v-1.7
		c0-4.8,1.399-8,4.7-8c2.199,0,3.5,1.5,4,4.8l3.5-1c-0.801-4-3-6.7-7.601-6.7L430,9.25z M447.3,9.25c-5.2,0-8.4,4.3-8.4,11.3v1
		c0,7,3,11,8.3,11s8.5-4,8.5-11v-1c0-7-3.2-11.2-8.5-11.2L447.3,9.25z M296.001,9.95v22.3h14.299v-2.7H299.6v-7.6h8.3v-2.7h-8.399
		v-6.7h10.5v-2.7h-14V9.95z M347.6,9.95v22.3h3.3v-17l8.8,17h3.6V9.95H360.1v16.3h-0.301L351.4,9.85h-4L347.6,9.95z M385.4,9.95
		v22.3h3.2v-18.6h0.199l5.801,18.8h3.699l5.801-18.7h0.4v18.5h3.399V9.95h-5.899l-5.301,18h-0.199l-5.5-18H385.4z M410.4,9.95v1.3h3
		v19.5h-3v1.5h9.8v-1.5h-3.199v-19.5h3.199v-1.3h-10H410.4z M336.501,12.25c3.199,0,4.799,3,4.799,8v1.7c0,4.8-1.6,8-4.799,8
		c-3.201,0-4.701-3.2-4.701-8v-1.7c0-5,1.4-8,4.601-8H336.501z M374.299,12.25c3.201,0,4.801,3,4.801,8v1.7c0,4.8-1.6,8-4.801,8
		c-3.199,0-4.699-3.2-4.699-8v-1.7C369.6,15.25,371.1,12.25,374.299,12.25z M447.3,12.25c3,0,4.699,3,4.699,8v1.7
		c0,4.8-1.5,8-4.699,8c-3,0-4.7-3.2-4.7-8v-1.7C442.6,15.25,444.2,12.25,447.3,12.25z"/>
	<path id="path6" inkscape:connector-curvature="0" fill="#A6A6A6" d="M278.001,9.75c-2.801,0-9,0.6-14,0.6H232.7
		c-0.3,0-0.7,0.3-0.7,0.7v3.2c0,0.4,0.4,0.8,0.7,0.8h17.5c0.3,0,0.6,0.2,0.6,0.6v155.8c0,0.399-0.3,0.6-0.6,0.6h-12.5
		c-9.4,0-14.3-2.8-14.3-15.399v-53.2c0-29.8-11.5-43-48.8-43c-19.8,0.1-41.6,7.8-41.6,26.8c0,6.4,5,12.7,14.5,12.7s14-5.2,14-12.8
		c0-4-0.6-8.3-0.6-13.2c0-6.7,4.8-8.8,12.5-8.8c15,0,21.5,7,21.5,24.2v10.9c0,2.8-0.5,4-6.8,5.7c-5.2,1.4-14.3,3.8-21.7,5.2
		c-30.6,5.6-40.6,18-40.6,33.7c0,22.7,18,33.7,39.3,33.7c14,0,25-7,29.6-16.2h0.6c1,6.4,5.7,14.4,23.5,14.4h78.4
		c0.301,0,0.6-0.3,0.6-0.7v-3.6c0-0.3-0.299-0.601-0.6-0.601h-18c-0.3,0-0.6-0.3-0.6-0.699V10.65c0-0.5-0.301-0.8-1-0.8
		L278.001,9.75z M0.5,10.25c-0.3,0-0.6,0.3-0.6,0.7v3.3c0,0.4,0.3,0.8,0.6,0.8H16c1,0,1.4,0.6,1.7,1.3l61.7,160
		c0.2,0.4,0.6,0.7,1,0.7h4.2c0.3,0,0.6-0.3,0.8-0.6l58.4-157.5c0.8-2.3,1.7-3.7,4.5-3.7h14c0.2,0,0.5-0.4,0.5-0.7v-3.5
		c0-0.4-0.3-0.6-0.6-0.6h-41.4c-0.3,0-0.7,0.3-0.7,0.7v3.1c0,0.4,0.5,0.8,0.8,0.8h15.8c1.4,0,2.5,0.7,2.5,1.7l-0.4,2.3l-42.8,115
		h-0.5L52,16.25v-0.5c0-0.4,0.2-0.7,1-0.7h17c0.3,0,0.7-0.4,0.7-0.7v-3.3c0-0.4-0.5-0.6-0.8-0.6H0.6L0.5,10.25z M352.001,60.65
		c-34,0-57.4,23.8-57.4,59.5c0,35.6,23.4,58.7,57.5,58.7c34,0,57.6-23,57.6-58.7c0-35.8-23.5-59.5-57.5-59.5H352.001z M490.2,60.65
		c-17.5,0-29,12-34.3,25.3h-0.7v-23.3c0-0.5-0.399-0.8-1-0.8c-2.7,0-9,0.6-14,0.6h-30.199c-0.4,0-0.601,0.2-0.601,0.6v3.4
		c0,0.4,0.2,0.7,0.601,0.7H427.5c0.4,0,0.601,0,0.601,0.5v103.6c0,0.5-0.3,0.7-0.7,0.7h-17.8c-0.301,0-0.6,0.3-0.6,0.6v3.601
		c0,0.3,0.199,0.5,0.5,0.5H474.5c0.301,0,0.601-0.2,0.601-0.601v-3.7c0-0.3-0.2-0.6-0.5-0.6h-18c-0.2,0-0.601-0.2-0.601-0.6v-58
		c0-16,3.801-26.8,8-32.2c4.601-6.6,10.801-13.8,17-13.8c1.7,0,3.2,0.7,3.2,2.4c0,3-1.7,7.2-1.7,13.3c0,9,5,14.4,14,14.4
		c10.9,0,15.5-5,15.5-16.2C512,70.85,506.7,60.65,490.2,60.65z M352.2,65.35c5,0,10.7,1.4,14,3.7c7.2,5.4,12.5,19.3,12.5,51
		c0,32-5.3,45-12.6,50.4c-3,2.399-9,3.8-14,3.8s-10.7-1.4-14-3.7c-7.301-5.3-12.6-18.399-12.6-50.2s5.299-45.7,12.699-51
		c3.301-2.4,9-3.8,14-3.8V65.35z M195.2,108.75v37.5c0,12-8,25.7-24,25.7c-9.6,0-15.3-10.601-15.3-26.6c0-20.2,4.5-27.3,18-31
		c8-1.7,16.8-4,21-5.6H195.2z"/>
</g>
</svg>
