<?xml version="1.0" encoding="utf-8"?>
<!-- Generator: Adobe Illustrator 16.0.0, SVG Export Plug-In . SVG Version: 6.00 Build 0)  -->
<!DOCTYPE svg PUBLIC "-//W3C//DTD SVG 1.1//EN" "http://www.w3.org/Graphics/SVG/1.1/DTD/svg11.dtd">
<svg version="1.1" id="Layer_1" xmlns="http://www.w3.org/2000/svg" xmlns:xlink="http://www.w3.org/1999/xlink" x="0px" y="0px"
	 width="1077px" height="709px" viewBox="0 0 1077 709" enable-background="new 0 0 1077 709" xml:space="preserve">
<path fill-rule="evenodd" clip-rule="evenodd" fill="#F2CA2F" d="M647.189,214.599h49.513v274.76h-0.167
	c0.112,1.797,0.167,3.615,0.167,5.441c0,44.047-32.97,79.918-74.072,81.176h-4.471h-24.911v-5.254v-37.381h6.612
	c26.135,0,47.329-19.697,47.329-43.982l0,0v-0.211v-70.404V214.599L647.189,214.599z M647.189,186.464h49.513v-52.44h-49.513
	V186.464L647.189,186.464z M221.536,478.621l131.091-262.183h-61.631l-90,200.566l-90-200.566H49.365l131.091,262.183H221.536
	L221.536,478.621z M548.256,468.258c22.074-12.393,40.422-30.422,52.985-52.082c4.085-7.043,7.56-14.469,10.352-22.209h-55.189
	c-14.852,31.664-44.487,53.264-78.614,53.264c-45.616,0-83.204-38.588-88.193-88.221h176.388h53.203
	c0.305-3.715,0.46-7.465,0.46-11.255c0-7.898-0.676-15.641-1.971-23.181c-11.277-65.625-69.625-115.643-139.887-115.643
	c-78.331,0-141.855,62.167-141.855,138.823c0,76.656,63.524,138.824,141.855,138.824
	C503.435,486.578,527.495,479.914,548.256,468.258L548.256,468.258z M564.12,324.574H391.458
	c9.321-43.754,44.442-76.297,86.331-76.297C519.678,248.277,554.8,280.82,564.12,324.574L564.12,324.574z M935.875,352.61
	c-13.43,5.767-26.92,9.576-40.034,12.154c-19.057,3.75-37.319,4.906-53.429,5.725c-11.035,0.561-30.161,0.268-43.963,5.525
	c-14.147,5.391-18.126,18.127-16.036,30.939c8.768,53.803,85.904,46.416,120.772,25.008
	C931.863,414.354,940.759,386.076,935.875,352.61L935.875,352.61z M984.697,300.207v177.208h-48.822v-22.48
	c-16.317,13.182-31.07,21.756-48.358,27.158c-27.633,8.635-61.428,10.779-89.344,3.043c-40.82-11.311-77.611-41.607-73.182-89.26
	c3.274-35.221,21.221-54.042,46.212-61.409c37.081-10.93,91.54-0.227,127.864-8.963c18.611-4.474,36.808-11.532,36.808-34.549
	c0-23.153-31.401-41.93-70.118-41.93c-17.675,0-33.82,3.914-46.152,10.37c-16.821,8.804-23.965,19.822-23.965,38.604h-55.758
	c0-14.434,0.438-23.879,6.879-36.041c21.289-40.199,75.423-53.373,117.014-53.373c44.867,0,84.038,14.655,104.906,36.417
	C984.61,261.611,984.697,278.221,984.697,300.207z"/>
<g>
	
		<image overflow="visible" opacity="0.88" width="978" height="478" xlink:href="ED66F6C0.png"  transform="matrix(1 0 0 1 21.5469 118.5469)">
	</image>
	<g>
		<path fill-rule="evenodd" clip-rule="evenodd" fill="#F2CA2F" d="M707.903,500.742c-2.813,45.635-37.778,85.17-84.925,86.613
			l-0.176,0.004h-40.938v-65.4h17.995c18.343,0,35.946-13.305,35.946-32.566l-0.001-0.232V203.216h72.281v297.526H707.903
			L707.903,500.742z M647.189,214.599v204.145v70.404v0.211l0,0c0,24.285-21.194,43.982-47.329,43.982h-6.612v37.381v5.254h24.911
			h4.471c41.103-1.258,74.072-37.129,74.072-81.176c0-1.826-0.055-3.645-0.167-5.441h0.167v-274.76H647.189L647.189,214.599z
			 M647.189,186.464h49.513v-52.44h-49.513V186.464L647.189,186.464z M221.536,478.621l131.091-262.183h-61.631l-90,200.566
			l-90-200.566H49.365l131.091,262.183H221.536L221.536,478.621z M548.256,468.258c22.074-12.393,40.422-30.422,52.985-52.082
			c4.085-7.043,7.56-14.469,10.352-22.209h-55.189c-14.852,31.664-44.487,53.264-78.614,53.264
			c-45.616,0-83.204-38.588-88.193-88.221h176.388h53.203c0.305-3.715,0.46-7.465,0.46-11.255c0-7.898-0.676-15.641-1.971-23.181
			c-11.277-65.625-69.625-115.643-139.887-115.643c-78.331,0-141.855,62.167-141.855,138.823
			c0,76.656,63.524,138.824,141.855,138.824C503.435,486.578,527.495,479.914,548.256,468.258L548.256,468.258z M564.12,324.574
			H391.458c9.321-43.754,44.442-76.297,86.331-76.297C519.678,248.277,554.8,280.82,564.12,324.574L564.12,324.574z M935.875,352.61
			c-13.43,5.767-26.92,9.576-40.034,12.154c-19.057,3.75-37.319,4.906-53.429,5.725c-11.035,0.561-30.161,0.268-43.963,5.525
			c-14.147,5.391-18.126,18.127-16.036,30.939c8.768,53.803,85.904,46.416,120.772,25.008
			C931.863,414.354,940.759,386.076,935.875,352.61L935.875,352.61z M984.697,300.207v177.208h-48.822v-22.48
			c-16.317,13.182-31.07,21.756-48.358,27.158c-27.633,8.635-61.428,10.779-89.344,3.043c-40.82-11.311-77.611-41.607-73.182-89.26
			c3.274-35.221,21.221-54.042,46.212-61.409c37.081-10.93,91.54-0.227,127.864-8.963c18.611-4.474,36.808-11.532,36.808-34.549
			c0-23.153-31.401-41.93-70.118-41.93c-17.675,0-33.82,3.914-46.152,10.37c-16.821,8.804-23.965,19.822-23.965,38.604h-55.758
			c0-14.434,0.438-23.879,6.879-36.041c21.289-40.199,75.423-53.373,117.014-53.373c44.867,0,84.038,14.655,104.906,36.417
			C984.61,261.611,984.697,278.221,984.697,300.207L984.697,300.207z M635.806,197.848v-75.207h72.281v75.207H635.806
			L635.806,197.848z M200.996,389.199l82.632-184.144h87.417l-142.473,284.95h-55.149L30.947,205.056h87.417L200.996,389.199
			L200.996,389.199z M403.035,370.391h226.64l0.857-10.453c0.331-4.051,0.497-8.118,0.497-12.183c0-8.411-0.709-16.817-2.136-25.108
			c-12.551-73.044-77.362-125.097-151.104-125.097c-83.395,0-153.239,66.089-153.239,150.205
			c0,84.115,69.845,150.205,153.239,150.205c26.663,0,52.779-6.717,76.04-19.773c23.724-13.32,43.607-32.766,57.259-56.301
			c4.448-7.666,8.205-15.721,11.213-24.057l5.5-15.244H549.17l-3.072,6.549c-12.612,26.889-37.907,46.717-68.309,46.717
			C439.609,435.85,411.423,405.635,403.035,370.391L403.035,370.391z M924.49,477.213c-10.381,6.59-21.327,11.916-33.579,15.744
			c-29.691,9.279-65.657,11.494-95.78,3.148c-2.961-0.818-5.896-1.732-8.802-2.732c-22.706-7.838-44.299-21.559-58.118-41.559
			c-11.711-16.943-16.456-36.531-14.554-56.992c3.221-34.641,20.334-61.252,54.325-71.274c20.686-6.098,44.684-5.972,66.131-5.782
			c19.521,0.177,43.338,1.23,62.293-3.329c7.496-1.803,18.026-4.671,23.519-10.398c3.495-3.65,4.565-8.132,4.565-13.084
			c0-0.837-0.075-1.676-0.225-2.498c-1.479-8.309-9.966-14.838-16.906-18.592c-12.375-6.694-27.646-9.456-41.603-9.456
			c-13.72,0-28.63,2.661-40.873,9.069c-12.891,6.749-17.86,13.857-17.86,28.521v11.384h-78.527V298
			c0-15.729,0.675-27.151,8.204-41.37c23.377-44.141,80.621-59.425,127.074-59.425c38.588,0,85.515,11.133,113.122,39.919
			c18.374,19.155,19.185,38.08,19.185,63.083v188.588H924.49V477.213L924.49,477.213z M548.939,313.193H406.639
			c11.336-29.922,37.655-53.532,71.15-53.532C511.283,259.661,537.603,283.268,548.939,313.193L548.939,313.193z M925.762,368.643
			c0.163,21.986-7.759,40.865-28.534,53.619c-22.838,14.021-70.674,22.379-92.725,3.303c-6.229-5.387-9.544-12.391-10.857-20.443
			c-1.339-8.225,0.533-15.299,8.857-18.471c11.859-4.52,27.919-4.152,40.487-4.793c18.54-0.943,36.792-2.332,55.047-5.924
			C907.439,374.084,916.703,371.688,925.762,368.643z"/>
	</g>
</g>
</svg>
